<svg xmlns="http://www.w3.org/2000/svg" viewBox="25 383 234 234">
  <defs>
    <linearGradient id="SVGID_1_" gradientUnits="userSpaceOnUse" x1="239.6355" y1="597.7456" x2="40.0662" y2="398.1763">
      <stop offset="0" style="stop-color:#293780"/>
      <stop offset="0.2291" style="stop-color:#2870B7"/>
      <stop offset="0.4916" style="stop-color:#3091CF"/>
      <stop offset="0.743" style="stop-color:#54C8ED"/>
      <stop offset="1" style="stop-color:#9BD9E5"/>
    </linearGradient>
  </defs>
  <path fill="url(#SVGID_1_)" d="M196.4,383.3H87.4c-34.3,0-62.2,27.8-62.2,62.2v108.9c0,34.3,27.8,62.2,62.2,62.2h108.9
    c34.3,0,62.2-27.8,62.2-62.2V445.5C258.6,411.2,230.7,383.3,196.4,383.3z M174.6,486.5c0-4.1,3.3-7.4,7.4-7.4h0
    c4.1,0,7.4,3.3,7.4,7.4v45.9c0,4.1-3.3,7.4-7.4,7.4h0c-4.1,0-7.4-3.3-7.4-7.4V486.5z M144.6,465.3c0-4.1,3.3-7.4,7.4-7.4
    s7.4,3.3,7.4,7.4v67.1c0,4.1-3.3,7.4-7.4,7.4s-7.4-3.3-7.4-7.4V465.3z M114.6,518.5c0-4.1,3.3-7.4,7.4-7.4c4.1,0,7.4,3.3,7.4,7.4
    v13.9c0,4.1-3.3,7.4-7.4,7.4c-4.1,0-7.4-3.3-7.4-7.4V518.5z M204,560.4H100.7c-7.8,0-14.2-6.4-14.2-14.2V442.9
    c0-4.1,3.3-7.4,7.4-7.4c4.1,0,7.4,3.3,7.4,7.4v97.3c0,2.9,2.4,5.3,5.3,5.3H204c4.1,0,7.4,3.3,7.4,7.4
    C211.4,557,208.1,560.4,204,560.4z"/>
</svg>
